<?xml version="1.0" encoding="UTF-8" standalone="no"?>
<!-- Created with Inkscape (http://www.inkscape.org/) -->

<svg
   width="210mm"
   height="297mm"
   viewBox="0 0 210 297"
   version="1.1"
   id="svg1"
   inkscape:version="1.4-beta3 (01c8a1c, 2024-08-28)"
   sodipodi:docname="sol.svg"
   xmlns:inkscape="http://www.inkscape.org/namespaces/inkscape"
   xmlns:sodipodi="http://sodipodi.sourceforge.net/DTD/sodipodi-0.dtd"
   xmlns:xlink="http://www.w3.org/1999/xlink"
   xmlns="http://www.w3.org/2000/svg"
   xmlns:svg="http://www.w3.org/2000/svg">
  <sodipodi:namedview
     id="namedview1"
     pagecolor="#ffffff"
     bordercolor="#000000"
     borderopacity="0.25"
     inkscape:showpageshadow="2"
     inkscape:pageopacity="0.0"
     inkscape:pagecheckerboard="0"
     inkscape:deskcolor="#d1d1d1"
     inkscape:document-units="mm"
     inkscape:zoom="0.92725428"
     inkscape:cx="648.68938"
     inkscape:cy="508.49051"
     inkscape:window-width="1854"
     inkscape:window-height="1131"
     inkscape:window-x="66"
     inkscape:window-y="32"
     inkscape:window-maximized="1"
     inkscape:current-layer="layer1"
     showgrid="false" />
  <defs
     id="defs1">
    <linearGradient
       id="linearGradient19"
       inkscape:collect="always">
      <stop
         style="stop-color:#0000ff;stop-opacity:1;"
         offset="0.66728526"
         id="stop19" />
      <stop
         style="stop-color:#000085;stop-opacity:0;"
         offset="1"
         id="stop20" />
    </linearGradient>
    <linearGradient
       id="linearGradient17"
       inkscape:collect="always">
      <stop
         style="stop-color:#ff9955;stop-opacity:1;"
         offset="0"
         id="stop17" />
      <stop
         style="stop-color:#ff9955;stop-opacity:0;"
         offset="0.00623604"
         id="stop18" />
    </linearGradient>
    <linearGradient
       id="linearGradient16"
       inkscape:collect="always">
      <stop
         style="stop-color:#ff7313;stop-opacity:1;"
         offset="0.66828769"
         id="stop15" />
      <stop
         style="stop-color:#ff7313;stop-opacity:0;"
         offset="1"
         id="stop16" />
    </linearGradient>
    <linearGradient
       id="linearGradient13"
       inkscape:collect="always">
      <stop
         style="stop-color:#ff7313;stop-opacity:1;"
         offset="0.39758343"
         id="stop13" />
      <stop
         style="stop-color:#ff7313;stop-opacity:0;"
         offset="1"
         id="stop14" />
    </linearGradient>
    <linearGradient
       id="linearGradient6"
       inkscape:collect="always">
      <stop
         style="stop-color:#0ef9f9;stop-opacity:1;"
         offset="0"
         id="stop6" />
      <stop
         style="stop-color:#f9f9f9;stop-opacity:0;"
         offset="1"
         id="stop7" />
    </linearGradient>
    <linearGradient
       inkscape:collect="always"
       xlink:href="#linearGradient6"
       id="linearGradient7"
       x1="102.28601"
       y1="162.05882"
       x2="102.28601"
       y2="234.96498"
       gradientUnits="userSpaceOnUse" />
    <linearGradient
       inkscape:collect="always"
       xlink:href="#linearGradient13"
       id="linearGradient14"
       x1="107.22462"
       y1="52.368896"
       x2="107.22462"
       y2="229.13861"
       gradientUnits="userSpaceOnUse" />
    <linearGradient
       inkscape:collect="always"
       xlink:href="#linearGradient16"
       id="linearGradient15"
       x1="107.37016"
       y1="2.6117525"
       x2="107.37016"
       y2="179.38145"
       gradientUnits="userSpaceOnUse" />
    <linearGradient
       inkscape:collect="always"
       xlink:href="#linearGradient17"
       id="linearGradient18"
       x1="107.2854"
       y1="85.626511"
       x2="107.2854"
       y2="262.39621"
       gradientUnits="userSpaceOnUse" />
    <linearGradient
       inkscape:collect="always"
       xlink:href="#linearGradient19"
       id="linearGradient20"
       x1="107.34102"
       y1="121.53403"
       x2="107.34102"
       y2="298.30374"
       gradientUnits="userSpaceOnUse" />
  </defs>
  <g
     inkscape:label="Layer 1"
     inkscape:groupmode="layer"
     id="layer1">
    <rect
       style="fill:url(#linearGradient15);stroke-width:0.437372;fill-opacity:1"
       id="rect1"
       width="176.76971"
       height="62.166229"
       x="18.9853"
       y="59.91349"
       ry="6.8481755" />
    <rect
       style="fill:url(#linearGradient14);stroke-width:0.437372;fill-opacity:1"
       id="rect1-5"
       width="176.76971"
       height="62.166229"
       x="18.839764"
       y="109.67065" />
    <rect
       style="fill:url(#linearGradient18);stroke-width:0.437372"
       id="rect1-2"
       width="176.76971"
       height="62.166229"
       x="18.900547"
       y="142.92825" />
    <ellipse
       style="fill:#ffcc00;stroke-width:0.24647"
       id="path1"
       cx="109.5591"
       cy="150.31589"
       rx="76.872955"
       ry="76.121147" />
    <rect
       style="fill:#000080;stroke-width:0.338093"
       id="rect1-7"
       width="176.76971"
       height="37.147209"
       x="18.853083"
       y="168.14185" />
    <rect
       style="fill:url(#linearGradient20);stroke-width:0.437372"
       id="rect1-6"
       width="176.76971"
       height="62.166229"
       x="18.956161"
       y="178.83577"
       ry="0"
       rx="0" />
    <rect
       style="fill:#f9f9f9;stroke-width:0.264583"
       id="rect2"
       width="23.808424"
       height="2.4211957"
       x="31.475544"
       y="83.53125" />
    <rect
       style="fill:#f9f9f9;stroke-width:0.264583"
       id="rect2-2"
       width="23.808424"
       height="2.4211957"
       x="36.030796"
       y="81.859329" />
    <rect
       style="fill:#000000;stroke-width:0.120958"
       id="rect2-2-5"
       width="4.9759417"
       height="2.4211957"
       x="30.411295"
       y="114.62772" />
    <rect
       style="fill:#000000;stroke-width:0.102156"
       id="rect2-2-2"
       width="3.5492382"
       height="2.4211957"
       x="33.181385"
       y="116.37544" />
    <rect
       style="fill:#000000;stroke-width:0.102156"
       id="rect2-2-2-7"
       width="3.5492382"
       height="2.4211957"
       x="35.42815"
       y="118.25325" />
    <rect
       style="fill:#000000;stroke-width:0.102156"
       id="rect2-2-2-6"
       width="3.5492382"
       height="2.4211957"
       x="38.499363"
       y="120.10535" />
    <rect
       style="fill:#000000;stroke-width:0.102156"
       id="rect2-2-2-61"
       width="3.5492382"
       height="2.4211957"
       x="41.606831"
       y="118.58012" />
    <rect
       style="fill:#000000;stroke-width:0.102156"
       id="rect2-2-2-2"
       width="3.5492382"
       height="2.4211957"
       x="43.754776"
       y="116.88355" />
    <rect
       style="fill:#1a1a1a;stroke-width:0.120958"
       id="rect2-2-2-75"
       width="4.9759417"
       height="2.4211957"
       x="45.420044"
       y="114.6061" />
    <rect
       style="fill:#000000;stroke-width:0.0965564"
       id="rect2-2-5-0"
       width="3.5550151"
       height="2.1595185"
       x="49.176537"
       y="126.44392" />
    <rect
       style="fill:#000000;stroke-width:0.0815475"
       id="rect2-2-2-78"
       width="2.5357201"
       height="2.1595185"
       x="51.155602"
       y="128.00275" />
    <rect
       style="fill:#000000;stroke-width:0.0815475"
       id="rect2-2-2-7-6"
       width="2.5357201"
       height="2.1595185"
       x="52.76078"
       y="129.6776" />
    <rect
       style="fill:#000000;stroke-width:0.0815475"
       id="rect2-2-2-6-8"
       width="2.5357201"
       height="2.1595185"
       x="54.954979"
       y="131.32953" />
    <rect
       style="fill:#000000;stroke-width:0.0815475"
       id="rect2-2-2-61-8"
       width="2.5357201"
       height="2.1595185"
       x="57.175083"
       y="129.96915" />
    <rect
       style="fill:#000000;stroke-width:0.0815475"
       id="rect2-2-2-2-4"
       width="2.5357201"
       height="2.1595185"
       x="58.70966"
       y="128.45595" />
    <rect
       style="fill:#1a1a1a;stroke-width:0.0965564"
       id="rect2-2-2-75-3"
       width="3.5550151"
       height="2.1595185"
       x="59.899395"
       y="126.42464" />
    <rect
       style="fill:#f9f9f9;stroke-width:0.264583"
       id="rect2-7"
       width="23.808424"
       height="2.4211957"
       x="154.46622"
       y="97.551361" />
    <rect
       style="fill:#f9f9f9;stroke-width:0.264583"
       id="rect2-28"
       width="23.808424"
       height="2.4211957"
       x="162.09637"
       y="95.644287" />
    <rect
       style="fill:#445500;stroke:#445500;stroke-width:0.725619;stroke-miterlimit:12.3"
       id="rect4"
       width="5.2042618"
       height="6.916306"
       x="162.78149"
       y="91.21949"
       transform="rotate(20.7999)" />
    <rect
       style="fill:#445500;stroke:#445500;stroke-width:0.725619;stroke-miterlimit:12.3"
       id="rect4-9"
       width="5.2042618"
       height="6.916306"
       x="108.51991"
       y="151.40941"
       transform="rotate(-1.0907288)" />
    <ellipse
       style="fill:#445500;stroke:#445500;stroke-width:0.350334;stroke-miterlimit:12.3"
       id="path2"
       cx="72.871849"
       cy="259.45831"
       rx="38.19442"
       ry="10.094653"
       transform="matrix(0.42133642,-0.90690443,0.2885722,0.95745813,0,0)" />
    <rect
       style="fill:#445500;stroke:#445500;stroke-width:0.725619;stroke-miterlimit:12.3"
       id="rect4-7"
       width="5.2042618"
       height="6.916306"
       x="73.352562"
       y="176.70512"
       transform="rotate(-10.398983)" />
    <ellipse
       style="fill:#445500;stroke:#445500;stroke-width:0.147464;stroke-miterlimit:12.3"
       id="path2-7"
       cx="190.52663"
       cy="155.46779"
       rx="10.446182"
       ry="6.5395088"
       transform="matrix(0.99881776,0.04861148,-0.41474972,0.90993553,0,0)" />
    <rect
       style="fill:#0000ff;stroke:#0000ff;stroke-width:0.79375;stroke-miterlimit:12.3"
       id="rect3"
       width="38.235645"
       height="22.256571"
       x="80.180725"
       y="197.45572" />
    <path
       style="fill:url(#linearGradient7);stroke:none;stroke-width:0.79375;stroke-miterlimit:12.3"
       id="path4"
       d="m 76.57897,202.25352 c 0.827661,0.39823 1.707136,0.64853 2.602669,0.83556 0.638641,0.10831 1.290137,0.10295 1.936025,0.10524 0.667427,-0.0165 1.343496,-0.13858 1.96487,-0.38567 0.598191,-0.19519 1.154798,-0.47625 1.715256,-0.75698 0.448686,-0.17808 0.872102,-0.43329 1.227823,-0.76016 0.367856,-0.41901 0.635476,-0.91954 0.981062,-1.35978 0.351938,-0.33247 0.682924,-0.69437 0.988137,-1.07102 0.304538,-0.33218 0.600633,-0.66669 0.936831,-0.96784 0.303472,-0.28469 0.718063,-0.37294 1.097645,-0.51885 0.634236,-0.23966 1.287486,-0.42699 1.921814,-0.66558 0.529937,-0.20274 1.086906,-0.31082 1.650754,-0.35486 0.498835,0.003 1.016998,-0.0877 1.504059,0.0378 0.07507,0.0193 0.149725,0.0402 0.2252,0.0579 0.390205,0.091 0.08532,-0.0132 0.422291,0.15159 0.06508,0.0318 0.261797,0.12342 0.19903,0.0873 -3.907917,-2.2515 -4.256191,-2.47132 -3.060544,-1.72784 9.454948,5.42054 0.484489,0.27477 0.363477,0.20589 -0.06074,-0.0346 0.116713,0.0769 0.175863,0.11414 0.170598,0.10735 0.325757,0.22611 0.488206,0.34548 0.309814,0.25715 0.584806,0.55086 0.879962,0.82366 0.290473,0.28853 0.56664,0.59297 0.871516,0.86652 0.341051,0.23966 0.630241,0.53577 0.955742,0.79769 1.643406,0.95463 3.150634,2.16628 5.039962,2.44056 0.58236,0.0143 1.10903,-0.18073 1.65569,-0.34145 0.43401,-0.20244 0.83781,-0.46099 1.17872,-0.79878 0.48079,-0.48442 0.83841,-1.06791 1.24934,-1.6079 0.33616,-0.47268 0.69211,-0.92913 1.04958,-1.38542 0.34672,-0.43343 0.80726,-0.7602 1.3052,-1.00021 0.53152,-0.16609 1.06294,-0.33189 1.61352,-0.42528 0.55976,-0.0785 1.12609,-0.0825 1.69022,-0.0872 0.68955,0.0947 1.34547,0.32121 2.00551,0.5331 0.41428,0.0925 0.79805,0.27101 1.15301,0.49563 0.0698,0.0442 0.28612,0.16529 0.21451,0.12411 -1.06903,-0.61478 -2.13784,-1.22994 -3.20675,-1.84491 0.51882,0.36766 0.8538,0.90308 1.21598,1.41097 0.55826,0.65237 1.07265,1.33976 1.53941,2.06027 0.41449,0.76122 0.97373,1.41262 1.56474,2.0395 0.65172,0.62608 1.33368,1.22353 2.08199,1.7314 1.99451,1.45013 3.70852,2.25727 5.92504,2.83943 0.84757,0.22992 1.72414,0.27208 2.59667,0.3043 0.75159,0.0161 1.5034,0.0148 2.25513,0.0137 0.68833,-0.0303 1.21655,-0.33564 1.76334,-0.71727 0.49242,-0.41418 1.03575,-0.76105 1.50154,-1.20613 0.42967,-0.30076 0.61973,-0.81165 1.08022,-1.06643 0.38165,-0.28491 0.75614,-0.57524 1.13448,-0.86492 0.40815,-0.26402 0.87034,-0.43108 1.2868,-0.67713 0.47382,-0.28861 1.00138,-0.45693 1.52438,-0.63601 1.96346,-1.01366 2.0885,0.18045 -2.38972,-2.50283 -0.37769,0.32189 -0.8459,0.48929 -1.28976,0.69422 -0.70478,0.30366 -1.4297,0.54663 -2.13848,0.84594 -0.57796,0.24821 -1.19548,0.32867 -1.81714,0.36565 -0.65437,0.0705 -1.29196,-0.0484 -1.93785,-0.13253 -0.69506,-0.13235 -1.4655,0.0378 -2.10298,-0.30558 -0.42874,-0.26912 -0.91906,-0.3387 -1.41262,-0.38276 -0.53996,-0.0911 -0.99226,0.0581 -1.46735,0.28963 -0.3966,0.0909 -0.72019,0.34673 -1.10865,0.45468 -0.45777,0.084 -0.92613,0.0819 -1.38997,0.0874 -0.55202,0.0856 -1.01308,-0.14685 -1.51984,-0.30313 -0.58162,-0.0956 -1.13418,-0.27756 -1.70381,-0.41939 -0.0863,-0.0159 -0.17697,-0.0164 -0.25903,-0.0476 -0.17487,-0.0665 -0.32176,-0.19238 -0.49186,-0.27023 -0.2991,-0.13688 -0.60329,-0.19777 -0.92399,-0.26181 -0.2634,-0.13478 -0.56701,-0.16481 -0.84042,-0.26619 -0.17905,-0.0664 -0.27551,-0.15131 -0.42849,-0.2611 1.05381,0.60497 2.10761,1.20994 3.16142,1.81491 -0.5094,-0.46922 -1.05771,-0.88296 -1.6278,-1.27473 -0.37143,-0.24658 -0.68835,-0.55902 -1.02672,-0.84563 -1.58157,-0.99213 -2.49985,-1.96478 -4.08364,-2.11506 -0.26341,-0.025 -0.49784,-0.0216 -0.75333,-0.0951 -0.3057,-0.12534 -0.64727,-0.10011 -0.96193,-0.17318 -0.14715,-0.0342 -0.28368,-0.10415 -0.42729,-0.15102 -0.50136,-0.12698 -1.02424,-0.20179 -1.53698,-0.12227 -0.67196,0.0812 -1.33525,0.18342 -2.00066,0.30187 -0.69987,0.0526 -1.35066,0.22203 -1.98584,0.50983 -0.50291,0.10557 -0.90607,0.41096 -1.36173,0.6237 -0.45412,0.12252 -0.87686,0.32039 -1.339575,0.41462 -0.06927,0.012 -0.137501,0.0365 -0.207809,0.0361 -0.197472,-0.001 -0.944364,-0.4916 -0.572011,-0.28306 3.123185,1.74925 4.148065,2.5809 2.974865,1.64864 -0.4003,-0.35409 -0.7517,-0.76134 -1.1142,-1.15371 -1.10425,-0.95303 -2.782428,-2.53457 -4.334259,-2.28562 -0.187005,0.03 -0.479867,0.13829 -0.648743,0.19513 -0.974108,0.47069 -1.928019,0.98827 -2.790415,1.64384 -0.550854,0.4789 -0.972883,1.08481 -0.959993,1.83338 0.402992,1.73813 2.698912,2.46092 4.376788,2.5054 0.556943,0.006 1.113925,-0.003 1.670857,-0.007 0.589238,0.0486 1.06105,-0.25302 1.532551,-0.5563 0.388334,-0.31224 0.761014,-0.65582 1.146944,-0.9643 0.44604,-0.32561 0.69083,-0.89285 1.21241,-1.10699 0.006,0.0417 0.0541,0.14493 0.0171,0.12496 -1.14067,-0.61566 -2.203084,-1.37674 -3.37245,-1.93596 -0.08772,-0.042 -0.08368,0.17602 -0.13516,0.25852 -0.107042,0.17157 -0.223845,0.33689 -0.33973,0.50261 -0.508505,0.72719 -0.421106,0.59329 -0.993421,1.3009 -0.49757,0.57031 -0.93613,1.18556 -1.381016,1.79619 -0.237718,0.32628 -0.450474,0.67706 -0.80767,0.87661 -0.585184,-1.32152 0.01955,0.12713 3.255066,1.67705 0.07507,0.036 -0.02894,-0.16562 -0.02304,-0.24866 0.02908,-0.40952 0.203332,-0.77157 0.384743,-1.13024 0.316685,-0.64808 0.812295,-1.17314 1.269598,-1.72221 0.0625,-0.071 0.12013,-0.14649 0.18743,-0.2129 0.0432,-0.0426 0.0964,-0.0737 0.14272,-0.11292 0.0315,-0.0266 0.0494,-0.0869 0.0906,-0.0844 0.0303,0.002 0.006,0.10321 -0.0209,0.0887 -3.511789,-1.90312 -2.477321,-2.86973 -3.474057,-1.90947 -0.449384,0.38607 -0.952881,0.70029 -1.443254,1.03193 -0.282887,0.2065 -0.88341,0.87005 -1.198335,0.40424 1.096227,0.62825 2.186829,1.26641 3.288681,1.88473 0.0044,0.002 -0.115277,-0.002 -0.08853,-0.23003 0.02951,-0.25132 0.125053,-0.50918 0.185468,-0.75421 0.166634,-0.62148 0.183158,-1.01511 -0.171673,-1.55905 -0.252113,-0.4331 -0.499009,-0.87032 -0.738661,-1.31051 -0.146984,-0.42921 -0.362249,-0.80352 -0.678526,-1.12843 -1.574996,-1.62794 -2.853246,-2.14625 -4.681993,-2.17419 -0.563406,-0.0469 -1.005387,0.21764 -1.454311,0.51312 -0.39919,0.35649 -0.821198,0.68939 -1.225386,1.04082 -0.402614,0.40618 -0.77755,0.8416 -1.149503,1.27684 -0.436915,0.56413 -0.979364,1.02814 -1.474097,1.5373 -0.426488,0.34741 -0.710872,0.82621 -1.075553,1.23231 -0.363236,0.40773 -0.785304,0.68626 -1.306224,0.8416 -0.603864,0.23428 -1.206325,0.44865 -1.842582,0.57649 -0.610068,0.10748 -1.230458,0.11978 -1.848136,0.1271 -0.544417,0.0652 -1.045749,-0.0551 -1.570704,-0.1649 -0.425463,-0.23514 -0.842822,-0.45016 -1.316614,-0.57007 -0.423418,-0.07 -0.901475,-0.22207 -1.259054,0.0893 -0.18378,0.13967 -0.302768,0.002 -0.481682,-0.0687 -0.271185,-0.0964 -0.569773,-0.0548 -0.845942,-0.11141 -0.146214,-0.03 -0.2824,-0.0969 -0.425172,-0.14042 -0.07665,-0.0178 -0.15639,-0.0255 -0.229952,-0.0535 -0.06696,-0.0255 -0.124952,-0.0701 -0.187426,-0.10517 -0.06653,-0.0294 -0.131524,-0.0625 -0.199586,-0.0881 -0.225501,-0.0848 -0.458393,-0.12099 -0.695224,-0.15656 -0.475517,-0.0631 -0.954852,-0.0654 -1.433534,-0.0669 -0.489537,-0.0132 -0.95173,0.164 -1.393819,0.35292 -0.420444,0.24616 -0.793988,0.5814 -1.123061,0.94006 -0.315852,0.34409 -0.69346,0.61311 -1.043266,0.92155 -0.315952,0.34073 -0.679727,0.64785 -1.048385,0.93311 -0.12283,0.17016 -0.326032,0.25558 -0.449715,0.42422 -0.800547,1.09156 2.30114,1.43604 3.519422,2.02609 0.334608,-0.46768 0.724768,-0.86685 1.179081,-1.21737 0.544348,-0.36021 1.035648,-0.79477 1.573321,-1.16818 0.394298,-0.25891 0.77035,-0.45652 1.237938,-0.5374 0.557114,-0.0402 1.101812,-0.0632 1.651121,-0.16861 0.499327,-0.10798 0.961935,-0.30999 1.470872,-0.39088 0.483465,-0.10802 0.938906,0.0602 1.413656,0.13237 0.517615,0.0992 1.058367,0.008 1.566365,0.14341 1.239456,0.42595 3.756318,2.01511 -2.634335,-1.57689 -0.128876,-0.0724 0.234037,0.18153 0.34104,0.28355 0.329861,0.37721 0.634114,0.77911 1.017635,1.10383 1.355543,1.28008 2.950628,2.28278 4.767435,2.40574 0.522414,0.0523 1.013806,0.0196 1.492313,-0.20429 0.374986,-0.28217 0.719368,-0.59964 0.96702,-1.0003 0.270002,-0.27287 0.470157,-0.62883 0.777944,-0.86235 0.27119,-0.38344 0.52315,-0.7636 0.880028,-1.07551 0.427376,-0.257 0.867852,-0.49083 1.339895,-0.65434 0.551421,-0.22253 1.11211,-0.43402 1.685729,-0.59356 0.541703,-0.13297 1.100672,-0.15232 1.655572,-0.16499 0.451025,-0.0562 0.857406,0.1295 1.295588,0.20202 0.462865,0.0675 0.899919,0.26851 1.341385,0.42336 0.518723,0.19851 1.090083,0.12703 1.613524,0.281 0.504341,0.12132 0.978051,0.31518 1.488961,0.41531 0.610825,0.0703 1.204516,0.21692 1.815312,0.29711 0.559916,0.0726 1.092546,0.25389 1.656186,0.32393 0.49322,0.0827 0.92471,0.0551 1.37343,-0.16623 0.43314,-0.18578 0.88349,-0.35113 1.29019,-0.59109 0.39663,-0.25702 0.87704,-0.23184 1.31035,-0.371 0.55713,-0.2133 1.13362,-0.35224 1.71329,-0.49806 0.71722,-0.178 1.45143,-0.25785 2.18755,-0.299 0.76091,-0.0579 1.51407,-0.006 2.25652,0.16744 0.86074,0.12515 1.68143,0.39635 2.51239,0.63822 0.8015,0.30691 1.54403,0.74718 2.30333,1.14461 0.83738,0.49987 1.75526,0.83638 2.62258,1.27161 0.573,0.17229 1.05515,0.52319 1.63562,0.6662 0.51567,0.11049 1.01396,0.10073 1.52319,-0.0163 0.4915,-0.11725 0.99652,-0.14625 1.4995,-0.16654 0.56209,-0.0167 1.12451,-0.015 1.68679,-0.0148 0.57794,0.0712 1.12115,0.26584 1.68287,0.40488 0.57346,0.14804 1.13418,0.31395 1.72455,0.39155 0.5985,-0.0283 1.20483,-0.14931 1.63454,-0.59415 0.68078,-1.58207 -3.04757,-2.16687 -3.58838,-2.41801 -0.005,-0.002 -1.08474,0.22234 -1.15968,0.23561 -0.73095,0.13104 -1.47114,0.18783 -2.21229,0.21464 -0.65479,0.0171 -1.30987,0.0141 -1.96482,0.0125 -0.7052,0.0855 -1.00592,-0.13802 -1.61628,-0.36312 -0.49682,-0.0829 -0.96239,-0.25192 -1.44914,-0.37217 -0.30594,-0.0297 -0.56646,-0.17689 -0.8132,-0.34346 -0.0577,-0.039 -0.2413,-0.13908 -0.18098,-0.10431 1.067,0.61494 2.13399,1.22989 3.20098,1.84483 -0.39534,-0.26548 -0.71442,-0.6233 -1.07711,-0.92964 -7.10925,-4.1292 -2.676,-1.54744 -0.42566,-0.26527 0.0642,0.0366 -0.12598,-0.0777 -0.18475,-0.12246 -0.1765,-0.13447 -0.33473,-0.29378 -0.48477,-0.45606 -0.25158,-0.39206 -0.60551,-0.69519 -0.89078,-1.05862 -1.22008,-1.23499 -2.77249,-2.34074 -4.50055,-2.62905 -0.50863,-0.0102 -0.97535,-0.19921 -1.47798,-0.25907 -0.67376,-0.12778 -0.94416,0.002 -1.45891,0.40653 -0.0779,0.044 -0.70014,0.99491 -0.7745,0.8243 -0.0278,-0.0637 0.027,-0.13629 0.0405,-0.20443 5.34027,3.24722 3.1023,3.06071 3.30572,1.4899 0.0307,-0.23717 0.0955,-0.46488 0.14512,-0.69802 0.31701,-1.33286 0.087,-0.24764 -3.51723,-1.6567 -0.0674,-0.0264 0.0247,0.14334 0.0483,0.2118 0.0961,0.27857 0.27221,0.42823 0.49997,0.60004 2.45184,1.98353 3.00053,1.84852 5.07878,2.51284 1.27291,0.81006 -0.0277,-0.0219 -3.07005,-1.74666 -0.0273,-0.0155 0.0418,0.0692 0.072,0.0606 0.0358,-0.0101 0.021,-0.11009 0.0557,-0.0967 3.29793,1.26746 4.45566,2.29167 3.32851,1.32211 -1.42955,-0.96862 -2.82997,-2.2195 -4.56231,-2.48302 -0.53476,-0.0786 -1.05015,-0.068 -1.57417,0.052 -0.47026,0.11922 -0.93684,0.31364 -1.35524,0.56306 -0.67298,0.22982 -1.18948,0.69403 -1.73489,1.12524 -0.43504,0.34565 -0.79438,0.78883 -1.25516,1.09934 -0.43789,0.33273 -0.92157,0.58788 -1.40646,0.84321 -0.57223,0.24756 -1.04496,0.63171 -1.63054,0.86424 -0.49043,0.2943 -1.02039,0.43938 -1.58281,0.50369 -0.550229,0.0445 -1.102933,0.0387 -1.654499,0.0377 -0.559412,-0.003 -1.118841,-0.002 -1.678245,-0.007 -0.462991,-0.0335 -0.947033,0.0711 -1.395788,-0.0609 -0.643051,-0.20807 -1.225288,-0.55679 -1.840137,-0.82953 -0.521954,-0.16146 -1.009473,-0.36172 -1.5518,-0.44774 -0.732075,-0.20086 -1.498415,-0.2165 -2.234827,-0.38383 -0.675052,-0.14657 -1.362149,-0.2102 -2.04987,-0.2578 -2.20291,-0.0568 -1.614389,-0.32734 2.329244,1.96336 0.669274,-0.37567 1.433957,-0.52969 2.183146,-0.65868 0.880403,-0.1511 1.780717,-0.0702 2.661607,-0.19134 2.453574,-0.71511 0.913085,-0.60482 -2.325208,-2.65359 -0.651007,0.22221 -1.281771,0.49918 -1.938174,0.70834 -0.09844,0.0126 -0.199056,0.0619 -0.29533,0.0378 -0.08043,-0.0201 -0.263814,-0.1989 -0.19086,-0.1595 1.080368,0.5834 2.128613,1.22586 3.217212,1.79376 0.07729,0.0403 -0.122989,-0.12625 -0.166071,-0.20204 -0.104696,-0.18417 -0.13597,-0.39998 -0.180946,-0.60205 -0.09201,-0.57273 -0.08607,-1.15446 -0.08358,-1.73271 0.0081,-0.0668 0.0067,-0.1355 0.02424,-0.20051 0.06556,-0.24338 0.28757,0.16775 0.13979,0.0915 -2.708373,-1.39782 -4.33872,-2.58789 -3.065415,-1.66842 0.545843,0.5717 0.939969,1.26163 1.433105,1.87717 0.529259,0.62142 1.196713,1.09677 1.831049,1.60165 1.490469,1.24737 3.207326,2.40939 5.142486,2.70921 1.584431,0.31249 3.193191,0.48923 4.800631,0.63406 0.83359,-0.0267 1.7237,0.0611 2.51342,-0.25564 0.0404,-0.005 0.0894,0.009 0.12108,-0.0164 0.0536,-0.0434 0.17203,-0.1371 0.11323,-0.17312 -1.18976,-0.72875 -2.41766,-1.39823 -3.67293,-2.00726 -0.0858,-0.0416 -1.09892,0.27188 -1.19953,0.30067 -1.19658,0.44069 -2.439144,0.72136 -3.675835,1.02213 -0.07943,0.0186 -0.675529,0.17827 -0.826453,0.15333 -0.06416,-0.0106 -0.210052,-0.15246 -0.153395,-0.12054 1.117193,0.62941 2.197106,1.32655 3.336888,1.91406 0.05113,0.0264 0.04786,-0.10597 0.08391,-0.15081 0.0835,-0.1039 0.18165,-0.19512 0.27247,-0.29269 0.67252,-0.70341 1.55714,-1.10517 2.39532,-1.56301 0.36047,-0.1969 0.7066,-0.419 1.06035,-0.62775 0.32443,-0.24272 0.66597,-0.45598 1.01322,-0.66289 0.1487,-0.0886 0.29768,-0.20665 0.33471,-0.15998 0.0305,0.0384 -0.0207,0.0959 -0.0311,0.14387 -1.11884,-0.68408 -2.2067,-1.42162 -3.35651,-2.05225 -0.0553,-0.0304 -0.0368,0.12076 -0.0547,0.1813 -0.005,0.0183 -0.11706,0.37518 -0.0854,0.39352 3.51837,2.04041 2.39208,2.35477 3.94765,1.82293 0.49431,-0.1884 0.94234,-0.42965 1.47129,-0.51584 0.27839,-0.0376 0.55839,-0.0582 0.83882,-0.0717 0.066,-0.003 0.13436,-0.0257 0.19804,-0.008 0.0343,0.009 0.0985,0.10062 0.0684,0.0818 -1.14679,-0.71769 -2.28182,-1.454 -3.42273,-2.181 -0.98906,0.43132 -1.95362,0.91194 -2.96671,1.28825 -0.93764,0.37261 -1.894549,0.70207 -2.88222,0.91275 -0.534908,-0.007 -1.124014,0.021 -1.632247,-0.16659 -0.464666,-0.17938 -0.961728,-0.21958 -1.454081,-0.24934 -0.560689,-0.025 -1.122124,-0.0227 -1.683234,-0.0226 -0.178866,-0.056 -0.372986,-0.0507 -0.551886,-0.10624 -0.08203,-0.0255 -0.309282,-0.14907 -0.234675,-0.10649 5.659789,3.2301 3.95655,2.31303 2.829295,1.56 -1.950672,-1.19405 -8.251761,-4.71237 -1.232638,-0.70418 -0.512305,-0.26358 -0.46736,-0.7226 -0.448765,-1.22964 0.07897,-0.46293 -0.03267,-0.98194 0.167513,-1.41629 0.161306,-0.138 0.371446,0.0367 0.531852,0.0916 0.188839,0.0647 0.382765,0.11367 0.575649,0.16507 0.289586,0.0772 0.581059,0.14707 0.87159,0.22061 2.349413,0.53847 4.755637,0.73533 7.154997,0.89219 1.15759,0.017 2.29782,0.22626 3.44638,0.34409 0.55543,0.063 1.09754,0.094 1.60424,-0.16875 0.39116,-0.16545 0.64038,-0.52618 1.0034,-0.73271 0.35373,-0.14492 0.71483,-0.20761 1.03895,-0.42558 0.28491,-0.1027 0.40439,-0.38021 0.60893,-0.57456 0.0418,-0.0397 0.0911,-0.0707 0.13662,-0.10607 0.0501,-0.0497 0.1002,-0.0995 0.15031,-0.14923 0.1658,-0.17523 0.61747,-0.58715 0.88342,-0.56175 0.0506,0.005 0.0833,0.0581 0.12503,0.0872 0.92344,1.10019 0.0842,0.0645 -3.07297,-1.676 -0.0837,-0.0461 0.14963,0.1193 0.21934,0.1847 0.22819,0.21405 0.40704,0.46487 0.58675,0.71885 0.30447,0.52322 0.67069,0.95259 1.16408,1.30147 0.0768,0.054 0.14912,0.11494 0.2303,0.16207 11.99927,6.96596 -7.89127,-4.57581 4.05917,2.33173 1.0683,0.61749 -2.13604,-1.23597 -3.2093,-1.8448 -0.0635,-0.036 0.1195,0.084 0.17925,0.12595 1.19701,0.68998 2.39402,1.37997 3.59103,2.06996 0.0749,0.0205 0.15295,0.0318 0.22461,0.0617 0.28963,0.12076 0.51654,0.24259 0.83246,0.30661 0.53086,0.0821 1.06967,0.0836 1.60552,0.0883 0,0 -3.20317,-2.33586 -3.20317,-2.33586 v 0 c -0.52011,-0.0138 -1.04758,-0.0256 -1.55101,-0.17138 -1.42907,-0.5038 -3.69061,-2.0489 2.19983,1.4279 -1.2313,-0.77575 -2.54891,-1.41203 -3.75957,-2.21961 -1.02072,-0.68088 4.25829,2.43992 3.18588,1.84374 -12.13865,-6.74823 2.31005,1.10588 -0.70073,-0.38644 -0.51392,-0.38761 -0.65404,-0.37397 -1.04154,-0.93091 -0.057,-0.082 -0.12152,-0.15856 -0.18227,-0.23784 -0.94195,-1.60167 -2.6774,-2.95405 -4.55878,-3.18128 -0.46747,0.12908 -0.86509,0.39485 -1.19259,0.75323 -0.27628,0.25899 -0.50427,0.57305 -0.84565,0.7477 -0.34564,0.16077 -0.73125,0.22161 -1.04798,0.44339 -0.3184,0.22853 -0.58612,0.53433 -0.9629,0.67171 -0.48538,0.13464 -0.98235,0.065 -1.47716,0.0178 -1.12451,-0.11961 -2.24813,-0.25774 -3.38065,-0.27578 -2.394261,-0.1481 -4.795823,-0.36653 -7.126183,-0.96512 -0.299218,-0.0826 -0.598377,-0.16535 -0.897652,-0.2477 -0.544182,-0.14975 -1.087708,-0.3723 -1.457164,0.17557 -0.234436,0.49046 -0.182179,1.0273 -0.229806,1.55933 -0.0338,0.56021 -0.16024,1.17104 0.26661,1.6125 1.202515,0.6924 2.402988,1.38835 3.607546,2.07719 2.109128,1.20612 -4.216019,-2.75639 -2.377633,-1.37026 1.596533,0.85627 2.9919,2.39858 4.868473,2.41279 0.555498,0.002 1.11201,0.003 1.665867,0.0508 0.484362,0.0539 0.954053,0.15921 1.420882,0.29893 0.57146,0.0728 1.15328,0.13043 1.72206,0.004 0.98654,-0.2501 1.94852,-0.58879 2.89106,-0.97183 1.03171,-0.40795 2.04235,-0.87277 3.05421,-1.3241 -2.99845,-2.33024 -2.05978,-2.61636 -4.27861,-2.23442 -0.51748,0.13219 -0.97866,0.38719 -1.48975,0.53631 -1.4793,0.32855 -0.15601,-0.0242 2.96633,2.04813 0.0353,0.0234 -0.087,0.0922 -0.11283,0.0587 -0.0495,-0.0643 0.15314,-0.34013 0.11641,-0.36879 -1.05595,-0.82404 -2.19701,-1.53277 -3.29552,-2.29915 -0.46415,0.36582 -1.0087,0.62732 -1.46805,1.0026 -1.193227,0.73084 -2.491604,1.31798 -3.527566,2.27686 -0.268785,0.29138 -0.650846,0.67615 -0.563132,0.74914 2.602215,2.16564 2.445134,2.56425 4.450028,2.02316 1.23718,-0.31721 2.47811,-0.6171 3.69109,-1.02029 0.67831,-0.17104 0.25924,-0.07 0.87119,-0.20835 0.11665,-0.0264 0.44227,-0.004 0.34971,-0.0801 -0.97457,-0.7974 -2.06333,-1.44404 -3.09499,-2.16605 0.0356,-0.0513 0.12043,-0.093 0.10669,-0.15394 -0.0102,-0.0453 -0.0869,0.0328 -0.1303,0.0493 -0.76093,0.21898 -1.58561,0.15501 -2.36662,0.15404 -1.610969,-0.14153 -3.222742,-0.32566 -4.800781,-0.6896 -0.380756,-0.0975 -0.403479,-0.0867 -0.742886,-0.23046 -0.09304,-0.0394 -0.360588,-0.18178 -0.273717,-0.1302 5.678454,3.37211 3.780517,2.33061 2.685926,1.52292 -0.589423,-0.55468 -1.313564,-0.95461 -1.87143,-1.54827 -0.516358,-0.60141 -0.926383,-1.26538 -1.398077,-1.89961 -0.850593,-1.17269 -3.852071,-3.62231 -4.294473,-1.54556 -0.0051,0.6014 -0.0047,1.20414 0.06023,1.8029 0.01929,0.13516 0.132876,0.96907 0.231436,1.03486 1.68777,1.12666 2.554227,2.50626 4.2125,2.04917 0.630013,-0.22054 1.248683,-0.51318 1.909789,-0.62116 -3.953869,-2.80171 -1.882013,-2.40742 -4.140835,-1.94134 -0.889746,0.07 -1.787204,0.0646 -2.668788,0.22372 -0.836046,0.17059 -1.755701,0.34146 -2.401221,0.93738 3.610491,2.59627 2.041377,2.24376 4.309102,2.36781 0.677775,0.0527 1.350407,0.14795 2.015842,0.28855 0.749027,0.11431 1.501555,0.20851 2.237944,0.39384 0.509873,0.12963 1.005387,0.32392 1.492932,0.51927 0.61545,0.30104 1.237972,0.62058 1.916801,0.74794 0.475906,0.0188 0.952516,0.005 1.428726,0.01 0.55861,-0.001 1.11722,0.004 1.67583,0.003 0.56404,-0.003 1.13089,-0.002 1.69019,-0.0848 0.57755,-0.10784 1.11518,-0.31087 1.63173,-0.5926 0.57426,-0.26397 1.08244,-0.63404 1.66044,-0.88895 0.49103,-0.27654 0.98841,-0.54108 1.43581,-0.88733 0.44066,-0.34636 0.82406,-0.76106 1.2556,-1.11952 0.52706,-0.42918 1.06094,-0.8198 1.70453,-1.06284 0.4074,-0.20326 0.8384,-0.37941 1.28867,-0.45735 0.49187,-0.0727 0.99352,-0.0269 1.47775,0.0813 0.14026,0.0446 0.53885,0.23343 0.41198,0.15884 -5.68656,-3.34325 -3.90455,-2.26058 -2.69743,-1.55767 1.27848,0.9053 0.66713,0.48798 3.97685,1.85649 0.0468,0.0193 0.0514,-0.0974 0.0396,-0.14668 -0.008,-0.0322 -0.0579,-0.0321 -0.0864,-0.0489 -3.61208,-2.11731 -2.24212,-1.63102 -3.76362,-2.15226 -0.26796,-0.0822 -0.54365,-0.13751 -0.81031,-0.22312 -1.26651,-0.4066 -3.1845,-2.04482 2.55978,1.58167 -0.14806,-0.0854 -0.3144,-0.13895 -0.45555,-0.23532 -0.64368,-0.43944 -6.4084,-10.07217 -3.7894,-2.21681 -0.008,0.23853 -0.0846,0.4703 -0.12969,0.70451 -0.34171,1.77464 0.65149,1.22988 3.31381,2.85295 0.39766,-0.27194 0.66973,-0.63252 0.97967,-0.99412 0.42822,-0.31186 0.76217,-0.23466 1.27019,-0.14598 0.48669,0.10233 0.97032,0.20823 1.4602,0.29167 0.13803,0.0505 0.52866,0.25586 0.40203,0.18121 -5.5528,-3.27325 -3.83167,-2.39543 -2.71235,-1.51284 0.36658,0.38013 -0.0754,-0.0985 0.27328,0.35178 0.19478,0.25159 0.51758,0.37692 0.62101,0.70528 0.1287,0.16208 0.46054,0.59073 0.62527,0.69024 0.14217,0.0859 8.77618,5.10198 0.43645,0.24036 0.41066,0.25297 0.73356,0.60599 1.06693,0.94818 1.57478,0.91988 2.90778,2.04266 4.64075,2.46388 0.4731,0.14366 0.96136,0.22395 1.42433,0.39995 0.55299,0.21479 1.10054,0.29089 1.69609,0.24396 0.65867,-8e-4 1.31781,0.002 1.97595,-0.0281 0.74772,-0.0446 1.49231,-0.12625 2.22935,-0.26266 0.1279,-0.0218 0.68332,-0.1195 0.8232,-0.13161 0.0981,-0.008 0.37819,0.0526 0.29549,-0.001 -0.93134,-0.60264 -4.47088,-1.40022 -2.99206,-2.03205 -0.37788,0.32983 -0.94003,0.34488 -1.41334,0.29725 -0.57512,-0.10909 -1.1306,-0.28947 -1.70036,-0.4221 -0.57085,-0.15887 -1.14785,-0.31548 -1.74498,-0.32374 -0.56684,0.001 -1.13403,0.001 -1.70026,0.0307 -0.5157,0.0339 -1.02817,0.0933 -1.53338,0.20568 -0.47262,0.0645 -0.95318,0.006 -1.40679,-0.14103 -0.53478,-0.21505 -1.04538,-0.48933 -1.58563,-0.69325 -0.88648,-0.39406 -1.75902,-0.8134 -2.61031,-1.27997 -0.76911,-0.39391 -1.51457,-0.85223 -2.35242,-1.08925 -0.83221,-0.25548 -1.67712,-0.45306 -2.53448,-0.60562 -0.77235,-0.11995 -1.54795,-0.16892 -2.32828,-0.092 -0.7481,0.0637 -1.49085,0.17367 -2.22005,0.3562 -0.58856,0.13522 -1.15499,0.32663 -1.73352,0.49507 -0.47376,0.0954 -0.94752,0.18381 -1.36361,0.44789 -0.41514,0.19974 -0.833348,0.39261 -1.265852,0.55224 -0.413877,0.11814 -0.824981,0.0682 -1.246301,-0.002 -0.55131,-0.1018 -1.089102,-0.27055 -1.650439,-0.31605 -0.602686,-0.0976 -1.200925,-0.22158 -1.801818,-0.32822 -0.49956,-0.13548 -0.984948,-0.32178 -1.497481,-0.40822 -0.534691,-0.0655 -1.074171,-0.11962 -1.578088,-0.32587 -0.448808,-0.16569 -0.906905,-0.31003 -1.381731,-0.37756 -0.447786,-0.10047 -0.88468,-0.18714 -1.347592,-0.12634 -0.57586,0.0319 -1.154165,0.0781 -1.708248,0.25047 -0.574574,0.18507 -1.144087,0.3883 -1.70303,0.61634 -0.501002,0.20715 -0.998397,0.44532 -1.429435,0.77779 -0.332801,0.32433 -0.599583,0.69095 -0.873779,1.06103 -0.310692,0.29065 -0.56752,0.64166 -0.839451,0.96677 -0.203134,0.32242 -0.493967,0.59972 -0.828289,0.78344 -0.454462,0.12696 -0.914411,0.11112 -1.380445,0.0527 -0.244406,-0.0377 -0.483031,-0.0755 -0.710591,-0.17854 -0.06877,-0.0311 -0.264081,-0.14631 -0.199052,-0.10799 3.39094,1.99866 4.211082,2.5444 3.001645,1.74662 -0.554857,-0.52598 0.216726,0.18639 -0.374499,-0.29764 -0.259561,-0.21249 -0.405545,-0.53489 -0.667194,-0.74851 -0.953027,-1.48678 -2.832458,-2.27676 -4.530754,-2.64797 -0.5231,-0.0381 -1.04988,-0.0461 -1.566929,-0.14411 -0.501989,-0.0889 -0.991375,-0.1507 -1.495346,-0.0177 -0.493604,0.11216 -0.959688,0.3164 -1.462614,0.38707 -0.554561,0.0858 -1.119293,0.0589 -1.668592,0.18346 -0.486238,0.13867 -0.906322,0.38504 -1.321509,0.67089 -0.526746,0.39327 -1.030327,0.81713 -1.573591,1.18687 -0.461422,0.36706 -0.8621,0.78291 -1.218292,1.25341 3.762465,2.39135 2.365057,2.94386 3.68069,1.73176 0.362212,-0.30342 0.733914,-0.60207 1.055211,-0.94903 0.358357,-0.31518 0.748221,-0.59068 1.065263,-0.951 0.303662,-0.31113 0.629192,-0.62349 1.032973,-0.79791 0.414351,-0.16388 0.851389,-0.25294 1.298956,-0.22378 0.46518,0.0107 0.93282,0.0281 1.389142,0.12757 0.442656,0.11695 0.848775,0.32865 1.297662,0.42523 0.423645,0.10449 0.864918,0.11823 1.282271,0.25439 0.255186,0.0386 0.470612,-0.0433 0.676627,-0.19284 0.349086,0.0396 0.707134,0.0432 1.040678,0.17892 0.451247,0.17295 0.864399,0.44522 1.343408,0.53913 0.535708,0.10823 1.072494,0.11552 1.618145,0.0896 0.633208,-0.0191 1.268507,-0.0541 1.8884,-0.19509 0.640553,-0.15725 1.256408,-0.38505 1.87521,-0.61161 0.553334,-0.22335 1.022421,-0.56197 1.418198,-1.01143 0.348991,-0.40961 0.651074,-0.86249 1.061662,-1.21583 0.499761,-0.51291 1.023599,-1.0032 1.479063,-1.55786 0.371769,-0.41129 0.725803,-0.84153 1.128242,-1.22244 0.399777,-0.33202 0.786061,-0.68187 1.199354,-0.99495 0.408278,-0.2569 0.828529,-0.36941 1.315685,-0.31415 0.233384,0.0148 0.47122,0.0237 0.698106,0.087 0.06241,0.0174 0.238543,0.0993 0.18274,0.0663 -3.124685,-1.8443 -4.437566,-2.28897 -3.084833,-1.81896 0.348131,0.25015 0.655174,0.54777 0.750819,0.98179 0.200022,0.47338 0.51459,0.88218 0.716404,1.35658 0.07653,0.11839 0.353708,0.39233 0.395372,0.49508 0.09711,0.23946 -0.0622,0.53864 -0.07666,0.77582 -0.57835,2.39049 -0.617156,1.1777 3.227004,3.44948 0.564073,-0.0368 0.979167,-0.40045 1.404027,-0.74286 0.522346,-0.35875 1.08576,-0.67252 1.535118,-1.12439 0.89136,-1.28164 0.27365,-0.26078 -3.229943,-2.40366 -0.0044,-0.003 -0.351986,0.37133 -0.511951,0.56484 -0.468497,0.57699 -0.985583,1.12146 -1.302853,1.80322 -0.20892,0.41236 -0.385823,0.81355 -0.477988,1.27004 -0.02484,0.12301 -0.150715,0.29653 -0.05119,0.37298 3.192653,2.45255 2.238557,2.82455 3.691257,2.13562 0.880978,-0.78754 1.333294,-1.96601 2.175888,-2.7967 0.48649,-0.59479 0.98325,-1.19217 1.41676,-1.82792 0.0898,-0.13175 0.36864,-0.30467 0.24807,-0.40905 -2.985809,-2.58491 -2.23672,-3.00009 -3.509078,-2.18115 -0.477285,0.32658 -0.79528,0.80784 -1.241854,1.17189 -0.370898,0.3135 -0.744773,0.62005 -1.127585,0.91952 -0.435909,0.27515 -0.876332,0.42349 -1.401543,0.37673 -0.551839,0.004 -1.104892,0.0163 -1.655771,-0.023 -0.154048,-0.0197 -0.296987,-0.0285 -0.444068,-0.0827 -0.05877,-0.0216 -0.220927,-0.11786 -0.167236,-0.0856 1.076016,0.64612 2.156378,1.28499 3.234569,1.92749 -0.189183,-0.0664 -0.110824,-0.0108 -0.235704,-0.16593 -0.253209,-0.55574 0.351872,-1.12864 0.71628,-1.47141 0.833011,-0.62175 1.752121,-1.13905 2.723718,-1.51078 0.235654,-0.0509 0.352071,-0.0991 0.582946,-0.0774 0.304076,0.0286 0.509576,0.19915 0.406946,0.13842 -0.97534,-0.57719 -4.368369,-2.56685 -2.933817,-1.7183 0.40872,0.3504 0.7376,0.78868 1.100772,1.1846 1.261026,1.05116 0.373092,0.32923 3.802155,2.31095 0.29286,0.16925 0.64318,0.10135 0.94874,0.0233 0.47195,-0.13292 0.93373,-0.3092 1.38897,-0.48903 0.43934,-0.2341 0.87289,-0.4561 1.34954,-0.60839 0.61194,-0.26196 1.26216,-0.3516 1.9186,-0.44006 0.65939,-0.11433 1.32347,-0.19671 1.98959,-0.2611 0.49496,0.009 0.98404,0.0854 1.45508,0.24159 0.46353,0.12655 0.94644,0.17096 1.41238,0.29112 1.83213,0.19191 2.97252,1.17947 -2.03218,-1.62597 0.41275,0.19341 0.65683,0.58911 1.04734,0.82144 0.52854,0.44087 1.19736,0.72226 1.62312,1.28296 1.8109,1.07313 3.04907,2.12053 4.93979,2.57281 0.57422,0.16504 1.08925,0.47107 1.67653,0.59279 0.55955,0.16068 1.13235,0.25863 1.68777,0.43364 0.52391,0.17968 1.04687,0.24531 1.60163,0.19842 0.49441,-0.0142 0.99928,-0.0223 1.47176,-0.18564 0.37667,-0.15914 0.73669,-0.35432 1.12551,-0.48604 0.43234,-0.18545 0.87274,-0.19181 1.33501,-0.11089 0.4785,0.0832 0.91704,0.25253 1.35906,0.45074 0.70433,0.15062 1.4342,0.10593 2.14421,0.22826 0.6639,0.0864 1.32701,0.15226 1.99621,0.0711 0.64816,-0.0687 1.28352,-0.20235 1.87978,-0.47593 0.71022,-0.30427 1.44956,-0.52459 2.15181,-0.84691 0.48583,-0.2129 0.97262,-0.4402 1.37481,-0.79384 -3.64876,-2.5789 -2.13583,-2.72031 -4.27657,-1.80629 -0.53832,0.19495 -1.07986,0.38093 -1.57017,0.68311 -0.44776,0.22439 -0.90172,0.44362 -1.31546,0.72779 -0.37466,0.28048 -0.73834,0.57551 -1.12364,0.84151 -0.43132,0.32265 -0.68416,0.79276 -1.10486,1.12912 -0.46249,0.41975 -0.98765,0.76411 -1.47438,1.15479 -0.49644,0.33896 -1.01258,0.53499 -1.62542,0.52292 -0.74525,0.003 -1.49087,0.008 -2.23569,-0.0222 -0.85605,-0.0433 -1.71046,-0.12529 -2.53639,-0.36961 -0.44492,-0.12743 -0.88891,-0.25654 -1.32327,-0.41731 -1.29677,-0.47997 -3.25822,-1.71687 2.19587,1.41281 -0.0157,-0.01 -0.72296,-0.46139 -0.73634,-0.4714 -0.48251,-0.36125 -0.90201,-0.80954 -1.37885,-1.17856 -0.59248,-0.60486 -1.18299,-1.2116 -1.59817,-1.95728 -0.41892,-0.75281 -0.95595,-1.44794 -1.51814,-2.0991 -0.40295,-0.49145 -0.66809,-1.07586 -1.15616,-1.50016 -1.67392,-0.9951 -3.127,-2.14533 -4.97273,-2.66536 -0.67961,-0.21443 -1.37351,-0.43036 -2.09244,-0.43839 -0.5791,0.0127 -1.16091,0.0317 -1.73085,0.14485 -0.57135,0.12587 -1.14347,0.28367 -1.6785,0.52181 -0.52571,0.30098 -1.0265,0.6593 -1.40033,1.14228 -0.34818,0.46481 -0.71186,0.91621 -1.0401,1.39587 -0.38969,0.52843 -0.74722,1.08551 -1.22618,1.54122 -0.31698,0.27812 -0.67725,0.50903 -1.07799,0.64661 -0.501687,0.15625 -1.011751,0.28546 -1.541542,0.19171 -1.561121,-0.34675 -4.121917,-2.00246 1.826932,1.37773 -0.393176,-0.16962 -0.668268,-0.47683 -0.959003,-0.7799 -0.376322,-0.17823 -0.589669,-0.52283 -0.906103,-0.77992 -0.251296,-0.31697 -0.570841,-0.5822 -0.867693,-0.85333 -0.181499,-0.20576 -0.403227,-0.38416 -0.639955,-0.52148 -0.120844,-0.0701 -8.831183,-5.13175 -0.360633,-0.21352 -1.485199,-0.92922 -2.906366,-2.14487 -4.668604,-2.3834 -0.520753,-0.0208 -1.04402,-0.009 -1.562775,0.0424 -0.579631,0.0816 -1.14672,0.22752 -1.693243,0.43906 -0.647468,0.22205 -1.296877,0.43846 -1.942312,0.66631 -0.418478,0.16926 -0.855525,0.29526 -1.172562,0.63993 -0.347123,0.31556 -0.651539,0.67046 -0.965806,1.01795 -0.316338,0.3742 -0.649372,0.73485 -0.991536,1.08543 -0.320326,0.42497 -0.584052,0.90003 -0.947381,1.28678 -0.353972,0.28514 -0.750702,0.50393 -1.168011,0.68324 -0.542758,0.27941 -1.101693,0.52202 -1.679702,0.71974 -0.609544,0.18941 -1.250357,0.28325 -1.88945,0.26884 -0.630029,-0.009 -1.264319,-0.0236 -1.88118,-0.16675 -0.883187,-0.20475 -1.742469,-0.49736 -2.548527,-0.91729 z" />
    <path
       style="fill:#f9f9f9;stroke:#f9f9f9;stroke-width:0.0124023;stroke-miterlimit:12.3"
       id="path5"
       d="m 129.73097,228.10466 c 0.031,-0.0135 0.0633,-0.024 0.0955,-0.0342 0.0118,-0.002 0.0286,-0.0106 0.0409,-0.009 0.004,5e-4 0.008,0.004 0.0116,0.006 -0.0815,-0.0511 -0.0467,-0.028 -0.0303,-0.0104 0.008,0.009 0.0164,0.0185 0.0243,0.028 0.009,0.0114 0.0172,0.0232 0.0262,0.0346 0.0175,0.0225 0.0454,0.0329 0.0706,0.0457 0.0123,0.006 0.0257,0.007 0.0391,0.009 0.0141,0.002 0.0246,0.001 0.038,-0.004 0.0173,-0.007 0.0289,-0.0211 0.0403,-0.0353 0.0125,-0.0189 0.0248,-0.0379 0.0383,-0.0561 0.004,-0.004 0.0252,-0.0342 0.032,-0.0298 0.001,0.001 0.002,0.002 0.003,0.004 -0.0727,-0.0441 -0.053,-0.0385 -0.0417,-0.0132 0.004,0.009 0.007,0.0179 0.0105,0.0267 0.005,0.0127 0.008,0.0265 0.0166,0.0372 0.019,0.0111 0.0376,0.023 0.0569,0.0334 0.002,0.001 0.0129,-0.001 0.0143,-0.001 0.0182,-0.004 0.0359,-0.009 0.0538,-0.0137 0.0706,-0.0231 0.14003,-0.0496 0.20995,-0.0746 0.019,-0.005 0.0367,-0.0159 0.056,-0.0202 0.003,-0.001 0.007,-0.001 0.01,-0.001 0.003,2.5e-4 0.009,0.005 0.006,0.003 -0.016,-0.009 -0.0321,-0.0173 -0.0481,-0.0259 0.01,0.0139 0.0125,0.0311 0.017,0.0472 0.002,0.009 0.006,0.0179 0.0107,0.0259 0.0168,0.0184 0.004,0.005 0.0587,0.0346 5e-4,2.5e-4 0.007,0.001 0.008,0.001 0.004,-1.3e-4 0.008,-0.002 0.0111,-0.002 0.022,-0.006 0.0432,-0.015 0.0651,-0.0216 0.0151,-0.004 0.0298,-0.01 0.0454,-0.0101 0.0222,0.006 0.01,0.003 -0.0449,-0.0258 -10e-4,-5e-4 0.003,0.002 0.004,0.003 0.004,0.004 0.006,0.009 0.009,0.0135 0.0173,0.03 0.0255,0.0252 0.0688,0.0501 0.0121,5e-4 0.0226,-0.005 0.0329,-0.0108 0.0195,-0.0105 0.0126,-0.007 0.0324,-0.0211 0.0409,-0.0328 0.0813,-0.0663 0.12417,-0.0965 0.005,-0.003 0.0136,-0.0109 0.021,-0.009 0.002,5e-4 0.007,0.006 0.005,0.005 -0.0161,-0.007 -0.0303,-0.019 -0.0473,-0.024 -0.004,-0.001 0.004,0.008 0.005,0.0117 0.002,0.005 0.003,0.0106 0.004,0.0159 0.008,0.0386 0.0131,0.0775 0.0219,0.11585 0.003,0.008 0.008,0.0357 0.0169,0.0408 0.0587,0.034 0.0393,0.04 0.0669,0.0281 0.0145,-0.0102 0.0263,-0.0232 0.0387,-0.0357 0,0 -0.0523,-0.0319 -0.0523,-0.0319 v 0 c -0.0114,0.012 -0.0227,0.0247 -0.0373,0.0329 -0.024,0.004 -0.009,-4e-5 0.0409,0.0301 0.002,0.001 -0.004,-0.002 -0.006,-0.004 -0.008,-0.009 -0.01,-0.023 -0.014,-0.0342 -0.009,-0.0383 -0.0148,-0.0771 -0.0217,-0.11577 -1.2e-4,-5e-4 -0.005,-0.0269 -0.007,-0.0289 -0.0175,-0.0149 -0.0374,-0.0269 -0.0569,-0.0393 -0.003,-10e-4 -0.005,-0.002 -0.008,-10e-4 -0.008,10e-4 -0.0149,0.007 -0.0213,0.0114 -0.0419,0.0314 -0.0819,0.0653 -0.12388,0.0966 -0.0169,0.0114 -0.0157,0.0115 -0.0327,0.0197 -0.009,0.005 -0.0204,0.0101 -0.0307,0.006 0.0164,0.01 0.0329,0.0195 0.0494,0.0292 0.001,5e-4 -0.002,-0.001 -0.003,-0.002 -0.005,-0.004 -0.007,-0.009 -0.0102,-0.0139 -0.0186,-0.0281 -0.0175,-0.0511 -0.0745,-0.0517 -0.0156,0.002 -0.0305,0.007 -0.0456,0.0117 -0.0217,0.007 -0.043,0.0156 -0.0653,0.0206 -0.005,5e-4 -0.009,0.001 -0.0138,-5e-4 -0.001,-2.5e-4 -0.004,-0.002 -0.003,-0.001 0.0475,0.0284 0.0681,0.0368 0.0471,0.0281 -0.007,-0.005 -0.009,-0.0162 -0.0122,-0.0239 -0.005,-0.0166 -0.009,-0.0339 -0.0157,-0.0499 -0.0192,-0.0117 -0.0379,-0.0243 -0.0576,-0.0352 -0.004,-0.002 -0.0141,2e-5 -0.0177,0.001 -0.0187,0.006 -0.0358,0.0156 -0.0543,0.0215 -0.0695,0.0263 -0.1389,0.0532 -0.21034,0.0737 -0.0179,0.005 -0.0364,0.01 -0.0549,0.0117 -0.002,2.5e-4 -0.005,5e-4 -0.008,2e-5 -0.002,-2.5e-4 -0.006,-0.003 -0.005,-0.002 0.016,0.01 0.0324,0.0192 0.0486,0.029 -0.0114,-0.008 -0.0132,-0.0227 -0.0182,-0.0351 -0.004,-0.009 -0.007,-0.018 -0.0103,-0.027 -5e-4,-10e-4 -0.006,-0.0142 -0.007,-0.0148 -0.0179,-0.0131 -0.037,-0.0243 -0.0556,-0.0364 -0.002,-6e-5 -0.004,-5e-4 -0.005,-2.5e-4 -0.0123,0.002 -0.0247,0.026 -0.0333,0.0339 -0.0136,0.0181 -0.0262,0.0368 -0.0386,0.0557 -0.0108,0.0134 -0.0219,0.0264 -0.0387,0.0321 -0.012,0.004 -0.024,0.003 -0.0364,0.002 -0.0131,-0.002 -0.0263,-0.004 -0.0379,-0.0107 -0.0206,-0.0109 -0.005,-0.003 0.0459,0.0271 10e-4,5e-4 -0.002,-10e-4 -0.003,-0.002 -2.5e-4,-1.2e-4 -0.005,-0.005 -0.005,-0.005 -0.001,-0.001 -0.002,-0.003 -0.002,-0.003 -0.0102,-0.0106 -0.0178,-0.0235 -0.0271,-0.0349 -0.008,-0.01 -0.016,-0.0189 -0.0241,-0.0282 -0.001,-0.002 -0.0125,-0.0143 -0.015,-0.016 -0.0192,-0.0126 -0.0393,-0.024 -0.0589,-0.036 -0.002,-0.001 -0.004,-0.002 -0.007,-0.003 -0.0142,-0.004 -0.0342,0.007 -0.0478,0.0101 -0.0325,0.011 -0.0651,0.0219 -0.0971,0.0343 z" />
    <circle
       id="path6"
       style="fill:#f9f9f9;stroke:#f9f9f9;stroke-width:0.264583"
       cx="98.157181"
       cy="199.73845"
       r="0.11402129" />
  </g>
</svg>
